<?xml version="1.0" encoding="UTF-8" standalone="no"?>
<svg
   width="200"
   height="200"
   viewBox="0 0 200 200"
   version="1.1"
   xmlns="http://www.w3.org/2000/svg">
  <defs>
    <linearGradient id="top" x1="0%" y1="0%" x2="100%" y2="100%">
      <stop offset="0%" style="stop-color:#F2F2F6;stop-opacity:1" />
      <stop offset="100%" style="stop-color:#E6E6EA;stop-opacity:1" />
    </linearGradient>
    
    <linearGradient id="left" x1="0%" y1="0%" x2="100%" y2="100%">
      <stop offset="0%" style="stop-color:#D6D6DC;stop-opacity:1" />
      <stop offset="100%" style="stop-color:#CACAD0;stop-opacity:1" />
    </linearGradient>
    
    <linearGradient id="right" x1="0%" y1="0%" x2="100%" y2="100%">
      <stop offset="0%" style="stop-color:#B2B2BA;stop-opacity:1" />
      <stop offset="100%" style="stop-color:#A6A6AE;stop-opacity:1" />
    </linearGradient>
    
    <pattern id="squares-left" x="0" y="0" width="60" height="60" patternUnits="userSpaceOnUse" patternTransform="skewY(30)">
      <rect x="10" y="10" width="12" height="12" fill="#000000" opacity="0.06" />
      <rect x="40" y="25" width="8" height="8" fill="#000000" opacity="0.05"/>
      <rect x="25" y="45" width="14" height="14" fill="#000000" opacity="0.07" />
      <rect x="5" y="40" width="6" height="6" fill="#000000" opacity="0.05"/>
      <rect x="48" y="48" width="9" height="9" fill="#000000" opacity="0.06" />
      <rect x="30" y="5" width="7" height="7" fill="#000000" opacity="0.04" />
    </pattern>
    
    <pattern id="squares-right" x="0" y="0" width="60" height="60" patternUnits="userSpaceOnUse" patternTransform="skewY(-30)">
      <rect x="10" y="10" width="12" height="12" fill="#000000" opacity="0.06" />
      <rect x="40" y="25" width="8" height="8" fill="#000000" opacity="0.05"/>
      <rect x="25" y="45" width="14" height="14" fill="#000000" opacity="0.07" />
      <rect x="5" y="40" width="6" height="6" fill="#000000" opacity="0.05"/>
      <rect x="48" y="48" width="9" height="9" fill="#000000" opacity="0.06" />
      <rect x="30" y="5" width="7" height="7" fill="#000000" opacity="0.04" />
    </pattern>
    
    <pattern id="squares-top" x="0" y="0" width="60" height="60" patternUnits="userSpaceOnUse" patternTransform="rotate(90) scale(1, 0.5)">
      <rect x="10" y="10" width="12" height="12" fill="#000000" opacity="0.06" />
      <rect x="40" y="25" width="8" height="8" fill="#000000" opacity="0.05"/>
      <rect x="25" y="45" width="14" height="14" fill="#000000" opacity="0.07" />
      <rect x="5" y="40" width="6" height="6" fill="#000000" opacity="0.05"/>
      <rect x="48" y="48" width="9" height="9" fill="#000000" opacity="0.06" />
      <rect x="30" y="5" width="7" height="7" fill="#000000" opacity="0.04" />
    </pattern>
  </defs>
  
  <g transform="translate(100, 100)">
    <path d="M -80,-40 L -80,60 L 0,100 L 0,0 Z"
          style="fill:url(#left);" />
    <path d="M -80,-40 L -80,60 L 0,100 L 0,0 Z"
          style="fill:url(#squares-left);opacity:0.2" />
    
    <path d="M 0,0 L 0,100 L 80,60 L 80,-40 Z"
          style="fill:url(#right);" />
    <path d="M 0,0 L 0,100 L 80,60 L 80,-40 Z"
          style="fill:url(#squares-right);opacity:0.18" />
    
    <path d="M -80,-40 L 0,-80 L 80,-40 L 0,0 Z"
          style="fill:url(#top);" />
    <path d="M -80,-40 L 0,-80 L 80,-40 L 0,0 Z"
          style="fill:url(#squares-top);opacity:0.12" />
    
    <g transform="skewY(30)">
      <rect x="-32" y="15" width="14" height="14" fill="#000000" opacity="0.04"/>
      <rect x="-38" y="-12" width="8" height="8" fill="#000000" opacity="0.04"/>
    </g>
    
    <g transform="skewY(-30)">
      <rect x="28" y="14" width="11" height="11" fill="#000000" opacity="0.03"/>
      <rect x="33" y="22" width="15" height="15" fill="#000000" opacity="0.03"/>
    </g>
    
    <g transform="matrix(1, 0, -0.866, 0.5, 0, 0)">
      <rect x="-5" y="-65" width="16" height="16" fill="#000000" opacity="0.05"/>
    </g>
  </g>
  
  <rect x="25" y="25" width="2" height="2" fill="#FFFFFF" opacity="0.5" transform="rotate(45 26 26)"/>
  <rect x="175" y="35" width="1.5" height="1.5" fill="#FFFFFF" opacity="0.4" transform="rotate(45 175.75 35.75)"/>
  <rect x="185" y="170" width="2" height="2" fill="#FFFFFF" opacity="0.6" transform="rotate(45 186 171)"/>
  <rect x="15" y="175" width="1.5" height="1.5" fill="#FFFFFF" opacity="0.4" transform="rotate(45 15.75 175.75)"/>
</svg>